# xmcd CD database file
#
# Track frame offsets:
#	150
#	17311
#	29772
#	43892
#	56692
#	78686
#	88690
#	105289
#	118161
#	133841
#	146902
#	160480
#
# Disc length: 2349 seconds
#
# Revision: 2
# Processed by: cddbd v1.5.2PL0 Copyright (c) Steve Scherf et al.
# Submitted via: CDex 1.51
#
DISCID=aa092b0c
DTITLE=Hank Stone and The West Forest Contry Boys - 12 Trucker-Songs
DYEAR=2003
DGENRE=Country
TTITLE0=Ich wollte auf nen echten Zug
TTITLE1=Truckstopp Mama
TTITLE2=Ich hab Hunger auf ein Weib
TTITLE3=Ein richtiger Mann ist immer unterwegs
TTITLE4=Ich hab noch Zeit
TTITLE5=Ich bin ein Mann der Straße
TTITLE6=Meine Antwort ist die große Autobahn
TTITLE7=Mein Auto kennt schon den Heimweg
TTITLE8=Mein Brummi
TTITLE9=Joe Einsam
TTITLE10=Mein Laster wartet schon
TTITLE11=Ich möcht so gern Dave Dudley hörn
EXTD=YEAR: 2003
EXTT0=
EXTT1=
EXTT2=
EXTT3=
EXTT4=
EXTT5=
EXTT6=
EXTT7=
EXTT8=
EXTT9=
EXTT10=
EXTT11=
PLAYORDER=
